<?xml version="1.0" encoding="UTF-8"?>
<svg width="14px" height="14px" viewBox="0 0 14 14" version="1.1" xmlns="http://www.w3.org/2000/svg" xmlns:xlink="http://www.w3.org/1999/xlink">
    <title>ic_qingkong</title>
    <g id="开发板" stroke="none" stroke-width="1" fill="none" fill-rule="evenodd">
        <g id="#、切图画板、效果说明" transform="translate(-518.000000, -577.000000)" fill="#A8ADB1">
            <g id="ic_qingkong" transform="translate(518.000000, 577.000000)">
                <path d="M7,0 C10.8659932,0 14,3.13400675 14,7 C14,10.8659932 10.8659932,14 7,14 C3.13400675,14 0,10.8659932 0,7 C0,3.13400675 3.13400675,0 7,0 Z M5.08137371,4.30561761 C4.87309748,4.15501363 4.58271407,4.1714858 4.39777088,4.35642899 C4.19227844,4.56192143 4.19477492,4.89758697 4.40334691,5.10615897 L4.40334691,5.10615897 L6.25,6.952 L4.3485433,8.85480882 L4.29313332,8.92010447 C4.14561091,9.12616343 4.16640453,9.41682399 4.35411933,9.60453879 C4.56269132,9.81311078 4.89835686,9.81560725 5.1038493,9.61011482 L5.1038493,9.61011482 L7.005,7.708 L8.93518292,9.63799497 L9.00131006,9.69438239 C9.20958629,9.84498637 9.4999697,9.8285142 9.68491289,9.64357101 C9.89040533,9.43807857 9.88790885,9.10241303 9.67933686,8.89384103 L9.67933686,8.89384103 L7.749,6.964 L9.56877293,5.14519118 L9.62418291,5.07989553 C9.77170532,4.87383657 9.7509117,4.58317601 9.5631969,4.39546121 C9.35462491,4.18688922 9.01895937,4.18439275 8.81346693,4.38988518 L8.81346693,4.38988518 L6.994,6.208 L5.14750085,4.36200503 Z"></path>
            </g>
        </g>
    </g>
</svg>