<?xml version="1.0" encoding="UTF-8"?>
<svg width="14px" height="14px" viewBox="0 0 14 14" version="1.1" xmlns="http://www.w3.org/2000/svg" xmlns:xlink="http://www.w3.org/1999/xlink">
    <title>ic_search</title>
    <g id="开发板" stroke="none" stroke-width="1" fill="none" fill-rule="evenodd">
        <g id="#、切图画板、效果说明" transform="translate(-400.000000, -577.000000)">
            <g id="ic_search" transform="translate(400.000000, 577.000000)">
                <rect id="矩形" x="0" y="0" width="14" height="14"></rect>
                <path d="M5.88027397,0 C9.12785961,0 11.7605479,2.63268833 11.7605479,5.88027397 C11.7605479,7.34570495 11.2244934,8.68593368 10.3377762,9.71556841 L13.7907785,13.1684037 L12.9591822,14 L9.48597708,10.5256735 C8.49025652,11.2996564 7.23908874,11.7605479 5.88027397,11.7605479 C2.63268833,11.7605479 8.97060204e-14,9.12785961 8.97060204e-14,5.88027397 C8.97060204e-14,2.63268833 2.63268833,0 5.88027397,0 Z M5.88027397,1.17605479 C3.28220546,1.17605479 1.17605479,3.28220546 1.17605479,5.88027397 C1.17605479,8.47834248 3.28220546,10.5844931 5.88027397,10.5844931 C8.47834248,10.5844931 10.5844931,8.47834248 10.5844931,5.88027397 C10.5844931,3.28220546 8.47834248,1.17605479 5.88027397,1.17605479 Z" fill="#B2B2B2"></path>
            </g>
        </g>
    </g>
</svg>